# xmcd CD database file
#
# Track frame offsets:
#	150
#	18501
#	40252
#	58545
#
# Disc length: 981 seconds
#
# Revision: 2
# Processed by: cddbd v1.4PL0 Copyright (c) Steve Scherf et al.
# Submitted via: CDex 1.50Beta7
#
DISCID=2b03d304
DTITLE=Wade Hayes - I'm Still Dancin' With You
DYEAR=1900
DGENRE=
TTITLE0=Old Enough To Know Better
TTITLE1=Don't Make Me Come To Tulsa
TTITLE2=Don't Stop
TTITLE3=I'm Still Dancin' With You
EXTD=
EXTT0=
EXTT1=
EXTT2=
EXTT3=
PLAYORDER=
